<mxfile host="app.diagrams.net" agent="Mozilla/5.0 (X11; Linux x86_64) AppleWebKit/537.36 (KHTML, like Gecko) Chrome/131.0.0.0 Safari/537.36" version="24.9.1">
  <diagram id="prtHgNgQTEPvFCAcTncT" name="Page-1">
    <mxGraphModel dx="1430" dy="768" grid="1" gridSize="10" guides="1" tooltips="1" connect="1" arrows="1" fold="1" page="1" pageScale="1" pageWidth="827" pageHeight="1169" math="0" shadow="0">
      <root>
        <mxCell id="0" />
        <mxCell id="1" parent="0" />
        <mxCell id="dNxyNK7c78bLwvsdeMH5-19" value="Falha na Dashboard" style="swimlane;html=1;childLayout=stackLayout;resizeParent=1;resizeParentMax=0;horizontal=0;startSize=20;horizontalStack=0;" parent="1" vertex="1">
          <mxGeometry x="120" y="120" width="810" height="635" as="geometry" />
        </mxCell>
        <mxCell id="dNxyNK7c78bLwvsdeMH5-20" value="N1" style="swimlane;html=1;startSize=20;horizontal=0;" parent="dNxyNK7c78bLwvsdeMH5-19" vertex="1">
          <mxGeometry x="20" width="790" height="350" as="geometry" />
        </mxCell>
        <mxCell id="dNxyNK7c78bLwvsdeMH5-23" value="Falha na exibição dos dados na dashboard" style="ellipse;whiteSpace=wrap;html=1;" parent="dNxyNK7c78bLwvsdeMH5-20" vertex="1">
          <mxGeometry x="40" y="10" width="160" height="80" as="geometry" />
        </mxCell>
        <mxCell id="3GokiH3KJFYefvaHDC4y-7" style="edgeStyle=orthogonalEdgeStyle;rounded=0;orthogonalLoop=1;jettySize=auto;html=1;exitX=0.5;exitY=1;exitDx=0;exitDy=0;entryX=0.5;entryY=0;entryDx=0;entryDy=0;" edge="1" parent="dNxyNK7c78bLwvsdeMH5-20" source="dNxyNK7c78bLwvsdeMH5-28" target="3GokiH3KJFYefvaHDC4y-6">
          <mxGeometry relative="1" as="geometry" />
        </mxCell>
        <mxCell id="dNxyNK7c78bLwvsdeMH5-28" value="O arduino está ligado?" style="rhombus;whiteSpace=wrap;html=1;fontFamily=Helvetica;fontSize=12;fontColor=#000000;align=center;" parent="dNxyNK7c78bLwvsdeMH5-20" vertex="1">
          <mxGeometry x="65" y="120" width="110" height="70" as="geometry" />
        </mxCell>
        <mxCell id="3GokiH3KJFYefvaHDC4y-2" style="edgeStyle=orthogonalEdgeStyle;rounded=0;orthogonalLoop=1;jettySize=auto;html=1;entryX=0.5;entryY=0;entryDx=0;entryDy=0;" edge="1" parent="dNxyNK7c78bLwvsdeMH5-20" source="dNxyNK7c78bLwvsdeMH5-23" target="dNxyNK7c78bLwvsdeMH5-28">
          <mxGeometry relative="1" as="geometry" />
        </mxCell>
        <mxCell id="3GokiH3KJFYefvaHDC4y-25" style="edgeStyle=orthogonalEdgeStyle;rounded=0;orthogonalLoop=1;jettySize=auto;html=1;entryX=0;entryY=0.5;entryDx=0;entryDy=0;" edge="1" parent="dNxyNK7c78bLwvsdeMH5-20" source="dNxyNK7c78bLwvsdeMH5-30" target="dNxyNK7c78bLwvsdeMH5-36">
          <mxGeometry relative="1" as="geometry">
            <Array as="points">
              <mxPoint x="460" y="155" />
              <mxPoint x="460" y="191" />
            </Array>
          </mxGeometry>
        </mxCell>
        <mxCell id="dNxyNK7c78bLwvsdeMH5-30" value="Ligar o Arduino" style="rounded=0;whiteSpace=wrap;html=1;fontFamily=Helvetica;fontSize=12;fontColor=#000000;align=center;" parent="dNxyNK7c78bLwvsdeMH5-20" vertex="1">
          <mxGeometry x="300" y="138.75" width="96" height="32.5" as="geometry" />
        </mxCell>
        <mxCell id="3GokiH3KJFYefvaHDC4y-3" style="edgeStyle=orthogonalEdgeStyle;rounded=0;orthogonalLoop=1;jettySize=auto;html=1;exitX=1;exitY=0.5;exitDx=0;exitDy=0;" edge="1" parent="dNxyNK7c78bLwvsdeMH5-20" source="dNxyNK7c78bLwvsdeMH5-28" target="dNxyNK7c78bLwvsdeMH5-30">
          <mxGeometry relative="1" as="geometry" />
        </mxCell>
        <mxCell id="3GokiH3KJFYefvaHDC4y-9" style="edgeStyle=orthogonalEdgeStyle;rounded=0;orthogonalLoop=1;jettySize=auto;html=1;exitX=1;exitY=0.5;exitDx=0;exitDy=0;entryX=0;entryY=0.5;entryDx=0;entryDy=0;" edge="1" parent="dNxyNK7c78bLwvsdeMH5-20" source="3GokiH3KJFYefvaHDC4y-6" target="3GokiH3KJFYefvaHDC4y-8">
          <mxGeometry relative="1" as="geometry" />
        </mxCell>
        <mxCell id="3GokiH3KJFYefvaHDC4y-6" value="A internet está funcionado?" style="rhombus;whiteSpace=wrap;html=1;fontFamily=Helvetica;fontSize=12;fontColor=#000000;align=center;" vertex="1" parent="dNxyNK7c78bLwvsdeMH5-20">
          <mxGeometry x="65" y="230" width="110" height="70" as="geometry" />
        </mxCell>
        <mxCell id="3GokiH3KJFYefvaHDC4y-26" style="edgeStyle=orthogonalEdgeStyle;rounded=0;orthogonalLoop=1;jettySize=auto;html=1;entryX=0;entryY=0.5;entryDx=0;entryDy=0;" edge="1" parent="dNxyNK7c78bLwvsdeMH5-20" source="3GokiH3KJFYefvaHDC4y-8" target="dNxyNK7c78bLwvsdeMH5-36">
          <mxGeometry relative="1" as="geometry">
            <Array as="points">
              <mxPoint x="460" y="265" />
              <mxPoint x="460" y="191" />
            </Array>
          </mxGeometry>
        </mxCell>
        <mxCell id="3GokiH3KJFYefvaHDC4y-8" value="Reinciar o moden" style="rounded=0;whiteSpace=wrap;html=1;fontFamily=Helvetica;fontSize=12;fontColor=#000000;align=center;" vertex="1" parent="dNxyNK7c78bLwvsdeMH5-20">
          <mxGeometry x="300" y="248.75" width="108" height="32.5" as="geometry" />
        </mxCell>
        <mxCell id="3GokiH3KJFYefvaHDC4y-29" style="edgeStyle=orthogonalEdgeStyle;rounded=0;orthogonalLoop=1;jettySize=auto;html=1;exitX=1;exitY=0.5;exitDx=0;exitDy=0;entryX=0;entryY=0.5;entryDx=0;entryDy=0;" edge="1" parent="dNxyNK7c78bLwvsdeMH5-20" source="dNxyNK7c78bLwvsdeMH5-36" target="3GokiH3KJFYefvaHDC4y-28">
          <mxGeometry relative="1" as="geometry" />
        </mxCell>
        <mxCell id="3GokiH3KJFYefvaHDC4y-30" style="edgeStyle=orthogonalEdgeStyle;rounded=0;orthogonalLoop=1;jettySize=auto;html=1;entryX=1;entryY=0.5;entryDx=0;entryDy=0;" edge="1" parent="dNxyNK7c78bLwvsdeMH5-20" source="dNxyNK7c78bLwvsdeMH5-36" target="dNxyNK7c78bLwvsdeMH5-23">
          <mxGeometry relative="1" as="geometry">
            <Array as="points">
              <mxPoint x="595" y="50" />
            </Array>
          </mxGeometry>
        </mxCell>
        <mxCell id="dNxyNK7c78bLwvsdeMH5-36" value="Funcionou?" style="rhombus;whiteSpace=wrap;html=1;fontFamily=Helvetica;fontSize=12;fontColor=#000000;align=center;" parent="dNxyNK7c78bLwvsdeMH5-20" vertex="1">
          <mxGeometry x="520" y="161.25" width="150" height="58.75" as="geometry" />
        </mxCell>
        <mxCell id="3GokiH3KJFYefvaHDC4y-19" value="Sim" style="text;html=1;align=center;verticalAlign=middle;resizable=0;points=[];autosize=1;strokeColor=none;fillColor=none;" vertex="1" parent="dNxyNK7c78bLwvsdeMH5-20">
          <mxGeometry x="110" y="190" width="40" height="30" as="geometry" />
        </mxCell>
        <mxCell id="3GokiH3KJFYefvaHDC4y-21" value="Não" style="text;html=1;align=center;verticalAlign=middle;resizable=0;points=[];autosize=1;strokeColor=none;fillColor=none;" vertex="1" parent="dNxyNK7c78bLwvsdeMH5-20">
          <mxGeometry x="200" y="240" width="50" height="30" as="geometry" />
        </mxCell>
        <mxCell id="3GokiH3KJFYefvaHDC4y-28" value="Fim" style="ellipse;whiteSpace=wrap;html=1;" vertex="1" parent="dNxyNK7c78bLwvsdeMH5-20">
          <mxGeometry x="720" y="171.63" width="60" height="38" as="geometry" />
        </mxCell>
        <mxCell id="dNxyNK7c78bLwvsdeMH5-21" value="N2" style="swimlane;html=1;startSize=20;horizontal=0;" parent="dNxyNK7c78bLwvsdeMH5-19" vertex="1">
          <mxGeometry x="20" y="350" width="790" height="125" as="geometry" />
        </mxCell>
        <mxCell id="3GokiH3KJFYefvaHDC4y-14" style="edgeStyle=orthogonalEdgeStyle;rounded=0;orthogonalLoop=1;jettySize=auto;html=1;exitX=1;exitY=0.5;exitDx=0;exitDy=0;entryX=0;entryY=0.5;entryDx=0;entryDy=0;" edge="1" parent="dNxyNK7c78bLwvsdeMH5-21" source="3GokiH3KJFYefvaHDC4y-10" target="3GokiH3KJFYefvaHDC4y-13">
          <mxGeometry relative="1" as="geometry" />
        </mxCell>
        <mxCell id="3GokiH3KJFYefvaHDC4y-10" value="Os cabos estão conectados?" style="rhombus;whiteSpace=wrap;html=1;fontFamily=Helvetica;fontSize=12;fontColor=#000000;align=center;" vertex="1" parent="dNxyNK7c78bLwvsdeMH5-21">
          <mxGeometry x="65" y="25" width="110" height="70" as="geometry" />
        </mxCell>
        <mxCell id="3GokiH3KJFYefvaHDC4y-27" style="edgeStyle=orthogonalEdgeStyle;rounded=0;orthogonalLoop=1;jettySize=auto;html=1;" edge="1" parent="dNxyNK7c78bLwvsdeMH5-21" source="3GokiH3KJFYefvaHDC4y-13">
          <mxGeometry relative="1" as="geometry">
            <mxPoint x="520" y="-160" as="targetPoint" />
            <Array as="points">
              <mxPoint x="460" y="60" />
              <mxPoint x="460" y="-160" />
            </Array>
          </mxGeometry>
        </mxCell>
        <mxCell id="3GokiH3KJFYefvaHDC4y-13" value="Conectar os cabos" style="rounded=0;whiteSpace=wrap;html=1;fontFamily=Helvetica;fontSize=12;fontColor=#000000;align=center;" vertex="1" parent="dNxyNK7c78bLwvsdeMH5-21">
          <mxGeometry x="300" y="43.75" width="118" height="32.5" as="geometry" />
        </mxCell>
        <mxCell id="3GokiH3KJFYefvaHDC4y-24" value="Sim" style="text;html=1;align=center;verticalAlign=middle;resizable=0;points=[];autosize=1;strokeColor=none;fillColor=none;" vertex="1" parent="dNxyNK7c78bLwvsdeMH5-21">
          <mxGeometry x="110" y="95" width="40" height="30" as="geometry" />
        </mxCell>
        <mxCell id="3GokiH3KJFYefvaHDC4y-12" style="edgeStyle=orthogonalEdgeStyle;rounded=0;orthogonalLoop=1;jettySize=auto;html=1;entryX=0.5;entryY=0;entryDx=0;entryDy=0;" edge="1" parent="dNxyNK7c78bLwvsdeMH5-19" source="3GokiH3KJFYefvaHDC4y-6" target="3GokiH3KJFYefvaHDC4y-10">
          <mxGeometry relative="1" as="geometry" />
        </mxCell>
        <mxCell id="3GokiH3KJFYefvaHDC4y-16" style="edgeStyle=orthogonalEdgeStyle;rounded=0;orthogonalLoop=1;jettySize=auto;html=1;entryX=0.5;entryY=0;entryDx=0;entryDy=0;" edge="1" parent="dNxyNK7c78bLwvsdeMH5-19" source="3GokiH3KJFYefvaHDC4y-10" target="3GokiH3KJFYefvaHDC4y-15">
          <mxGeometry relative="1" as="geometry" />
        </mxCell>
        <mxCell id="dNxyNK7c78bLwvsdeMH5-22" value="N3" style="swimlane;html=1;startSize=20;horizontal=0;" parent="dNxyNK7c78bLwvsdeMH5-19" vertex="1">
          <mxGeometry x="20" y="475" width="790" height="160" as="geometry" />
        </mxCell>
        <mxCell id="dNxyNK7c78bLwvsdeMH5-34" value="chamar o técico" style="rounded=0;whiteSpace=wrap;html=1;fontFamily=Helvetica;fontSize=12;fontColor=#000000;align=center;" parent="dNxyNK7c78bLwvsdeMH5-22" vertex="1">
          <mxGeometry x="220" y="25" width="80" height="60" as="geometry" />
        </mxCell>
        <mxCell id="3GokiH3KJFYefvaHDC4y-17" style="edgeStyle=orthogonalEdgeStyle;rounded=0;orthogonalLoop=1;jettySize=auto;html=1;exitX=1;exitY=0.5;exitDx=0;exitDy=0;entryX=0;entryY=0.5;entryDx=0;entryDy=0;" edge="1" parent="dNxyNK7c78bLwvsdeMH5-22" source="3GokiH3KJFYefvaHDC4y-15" target="dNxyNK7c78bLwvsdeMH5-34">
          <mxGeometry relative="1" as="geometry" />
        </mxCell>
        <mxCell id="3GokiH3KJFYefvaHDC4y-18" style="edgeStyle=orthogonalEdgeStyle;rounded=0;orthogonalLoop=1;jettySize=auto;html=1;exitX=0.5;exitY=1;exitDx=0;exitDy=0;entryX=0.5;entryY=1;entryDx=0;entryDy=0;" edge="1" parent="dNxyNK7c78bLwvsdeMH5-22" source="3GokiH3KJFYefvaHDC4y-15" target="dNxyNK7c78bLwvsdeMH5-34">
          <mxGeometry relative="1" as="geometry" />
        </mxCell>
        <mxCell id="3GokiH3KJFYefvaHDC4y-15" value="O equipamento está danificado?" style="rhombus;whiteSpace=wrap;html=1;fontFamily=Helvetica;fontSize=12;fontColor=#000000;align=center;" vertex="1" parent="dNxyNK7c78bLwvsdeMH5-22">
          <mxGeometry x="65" y="20" width="110" height="70" as="geometry" />
        </mxCell>
        <mxCell id="3GokiH3KJFYefvaHDC4y-33" value="Não" style="text;html=1;align=center;verticalAlign=middle;resizable=0;points=[];autosize=1;strokeColor=none;fillColor=none;" vertex="1" parent="dNxyNK7c78bLwvsdeMH5-22">
          <mxGeometry x="125" y="85" width="50" height="30" as="geometry" />
        </mxCell>
        <mxCell id="3GokiH3KJFYefvaHDC4y-34" value="Sim" style="text;html=1;align=center;verticalAlign=middle;resizable=0;points=[];autosize=1;strokeColor=none;fillColor=none;" vertex="1" parent="dNxyNK7c78bLwvsdeMH5-22">
          <mxGeometry x="170" y="25" width="40" height="30" as="geometry" />
        </mxCell>
        <mxCell id="dNxyNK7c78bLwvsdeMH5-37" value="" style="edgeStyle=orthogonalEdgeStyle;rounded=0;orthogonalLoop=1;jettySize=auto;html=1;endArrow=classic;endFill=1;" parent="dNxyNK7c78bLwvsdeMH5-19" source="dNxyNK7c78bLwvsdeMH5-34" target="dNxyNK7c78bLwvsdeMH5-36" edge="1">
          <mxGeometry relative="1" as="geometry" />
        </mxCell>
        <mxCell id="3GokiH3KJFYefvaHDC4y-20" value="Não" style="text;html=1;align=center;verticalAlign=middle;resizable=0;points=[];autosize=1;strokeColor=none;fillColor=none;" vertex="1" parent="1">
          <mxGeometry x="345" y="248" width="50" height="30" as="geometry" />
        </mxCell>
        <mxCell id="3GokiH3KJFYefvaHDC4y-22" value="Sim" style="text;html=1;align=center;verticalAlign=middle;resizable=0;points=[];autosize=1;strokeColor=none;fillColor=none;" vertex="1" parent="1">
          <mxGeometry x="250" y="438" width="40" height="30" as="geometry" />
        </mxCell>
        <mxCell id="3GokiH3KJFYefvaHDC4y-23" value="Não" style="text;html=1;align=center;verticalAlign=middle;resizable=0;points=[];autosize=1;strokeColor=none;fillColor=none;" vertex="1" parent="1">
          <mxGeometry x="345" y="498" width="50" height="30" as="geometry" />
        </mxCell>
        <mxCell id="3GokiH3KJFYefvaHDC4y-31" value="Não" style="text;html=1;align=center;verticalAlign=middle;resizable=0;points=[];autosize=1;strokeColor=none;fillColor=none;" vertex="1" parent="1">
          <mxGeometry x="725" y="238" width="50" height="30" as="geometry" />
        </mxCell>
        <mxCell id="3GokiH3KJFYefvaHDC4y-32" value="Sim" style="text;html=1;align=center;verticalAlign=middle;resizable=0;points=[];autosize=1;strokeColor=none;fillColor=none;" vertex="1" parent="1">
          <mxGeometry x="810" y="278" width="40" height="30" as="geometry" />
        </mxCell>
      </root>
    </mxGraphModel>
  </diagram>
</mxfile>
